<?xml version="1.0" encoding="iso-8859-1"?>
<!-- Uploaded to: SVG Repo, www.svgrepo.com, Generator: SVG Repo Mixer Tools -->
<svg fill="#14213D" height="800px" width="800px" version="1.1" id="Layer_1" xmlns="http://www.w3.org/2000/svg" xmlns:xlink="http://www.w3.org/1999/xlink" 
	 viewBox="0 0 163.305 163.305" xml:space="preserve">
<g>
	<g>
		<g>
			<path d="M22.585,19.11C11.706,19.11,0,22.371,0,29.534v104.414c0,0.066,0.034,0.12,0.037,0.185
				c0.397,6.905,11.859,10.062,22.548,10.062c10.879,0,22.585-3.261,22.585-10.424V29.826c0-0.035-0.019-0.064-0.02-0.099
				c0.002-0.066,0.02-0.126,0.02-0.193C45.169,22.371,33.463,19.11,22.585,19.11z M22.585,26.059c8.963,0,14.169,2.248,15.411,3.474
				c-1.241,1.227-6.446,3.475-15.411,3.475c-8.963,0-14.169-2.248-15.411-3.474C8.415,28.307,13.62,26.059,22.585,26.059z
				 M6.895,37.29c4.324,1.802,10.11,2.667,15.689,2.667c5.558,0,11.322-0.857,15.64-2.645l0.006,9.341
				c-0.716,1.139-6.042,3.728-15.645,3.728c-9.497,0-14.835-2.538-15.643-3.695c-0.003-0.057-0.035-0.104-0.042-0.161L6.895,37.29z
				 M6.904,54.668c4.323,1.799,10.105,2.663,15.68,2.663c5.562,0,11.33-0.859,15.649-2.649l0.006,9.334
				c-0.693,1.134-6.025,3.738-15.655,3.738c-9.497,0-14.835-2.538-15.643-3.695c-0.003-0.044-0.027-0.08-0.032-0.123L6.904,54.668z
				 M6.915,72.046c4.322,1.796,10.099,2.658,15.67,2.658c5.566,0,11.339-0.86,15.659-2.653l0.005,9.327
				c-0.669,1.129-6.008,3.749-15.664,3.749c-9.497,0-14.835-2.538-15.643-3.695c-0.002-0.031-0.019-0.056-0.022-0.086L6.915,72.046z
				 M6.924,89.423c4.321,1.794,10.094,2.654,15.661,2.654c5.57,0,11.347-0.861,15.669-2.657l0.005,9.321
				c-0.645,1.124-5.992,3.759-15.674,3.759c-9.497,0-14.835-2.538-15.643-3.695c-0.001-0.017-0.011-0.032-0.013-0.049L6.924,89.423z
				 M6.938,116.166L6.934,106.8c4.32,1.791,10.089,2.649,15.651,2.649c5.575,0,11.356-0.863,15.678-2.662l0.005,9.316
				c-0.621,1.118-5.975,3.77-15.684,3.77c-9.497,0-14.835-2.538-15.643-3.695C6.941,116.174,6.938,116.17,6.938,116.166z
				 M22.585,137.246c-9.482,0-14.815-2.529-15.636-3.689l-0.005-9.38c4.319,1.788,10.083,2.645,15.641,2.645
				c5.579,0,11.365-0.864,15.688-2.666l0.005,9.31C37.681,134.579,32.32,137.246,22.585,137.246z"/>
			<path d="M163.305,63.438c0-7.163-11.706-10.424-22.585-10.424c-10.879,0-22.585,3.261-22.585,10.424v71.904
				c0,1.446,0.883,2.682,2.139,3.205c3.865,3.849,12.377,5.648,20.445,5.648c10.879,0,22.585-3.261,22.585-10.424V63.655
				c0-0.039-0.021-0.071-0.022-0.108C163.285,63.509,163.305,63.477,163.305,63.438z M125.026,63.74
				c0.595-1.109,5.959-3.776,15.694-3.776c9.486,0,14.816,2.529,15.636,3.689v0.002v0.381c-0.738,1.143-6.057,3.718-15.636,3.718
				c-9.497,0-14.835-2.538-15.643-3.695c-0.005-0.07-0.042-0.127-0.051-0.196V63.74z M125.034,72.038
				c4.324,1.801,10.109,2.666,15.687,2.666c5.559,0,11.324-0.858,15.643-2.646l0.007,9.336c-0.704,1.136-6.033,3.733-15.65,3.733
				c-9.497,0-14.835-2.538-15.643-3.695c-0.003-0.05-0.031-0.092-0.037-0.142L125.034,72.038z M125.047,89.417
				c4.322,1.797,10.101,2.659,15.672,2.659c5.565,0,11.337-0.86,15.657-2.652l0.009,9.327c-0.668,1.129-6.008,3.749-15.665,3.749
				c-9.497,0-14.835-2.538-15.643-3.695c-0.002-0.031-0.02-0.057-0.023-0.088L125.047,89.417z M125.061,106.797
				c4.321,1.793,10.093,2.653,15.659,2.653c5.571,0,11.349-0.862,15.671-2.658l0.008,9.317c-0.633,1.121-5.983,3.764-15.679,3.764
				c-9.497,0-14.835-2.538-15.643-3.695c-0.001-0.012-0.008-0.022-0.009-0.033L125.061,106.797z M140.72,137.246
				c-9.485,0-14.819-2.531-15.637-3.69l-0.007-9.381c4.319,1.789,10.085,2.647,15.644,2.647c5.578,0,11.362-0.864,15.686-2.665
				l0.008,9.309C155.816,134.579,150.455,137.246,140.72,137.246z"/>
			<path d="M92.796,54.032c-1.357-1.357-3.556-1.357-4.913,0s-1.357,3.556,0,4.913l8.809,8.808H59.068v6.949h37.623l-8.809,8.809
				c-1.357,1.357-1.357,3.556,0,4.913c0.679,0.679,1.568,1.018,2.457,1.018c0.889,0,1.778-0.339,2.457-1.018l14.74-14.74
				c1.357-1.357,1.357-3.556,0-4.913L92.796,54.032z"/>
		</g>
	</g>
</g>
</svg>